<?xml version="1.0" encoding="UTF-8"?>
<svg xmlns="http://www.w3.org/2000/svg" viewBox="0 0 320 80" width="160" height="40">
  <g transform="translate(-26.3, -18.3)">
    <path d="M26.467,65.746l2.16-.24c1.92-.3,2.58-.601,2.58-1.08V31.488c0-.48-.36-.66-3.12-.96l-1.56-.24-.18-1.02h17.759c11.339,0,17.219,3.06,17.219,9.6,0,6.96-7.14,10.86-17.699,10.86-.9,0-1.86-.06-2.58-.18v14.999c0,.479.3.72,2.94.96l2.22.24.18,1.02h-20.099l.18-1.02ZM50.766,39.707c0-5.879-2.64-9.06-7.68-9.179l-2.04.12v17.52c.66.06,1.44.3,2.28.3,4.319,0,7.439-3.6,7.439-8.76Z" fill="#e8187a"/>
    <path d="M57.066,53.626c0-7.799,6.24-14.099,15.359-14.099,9.24,0,14.64,6.36,14.64,13.859,0,7.919-6.18,14.219-15.359,14.219-9.3,0-14.64-6.359-14.64-13.979ZM77.585,54.106c0-7.08-1.2-10.62-2.76-12.179-.78-.78-1.62-1.02-2.7-1.02-3.72,0-5.7,4.68-5.7,12.06,0,7.199,1.14,10.679,2.7,12.358.72.721,1.74,1.021,2.82,1.021,3.66,0,5.64-4.979,5.64-12.239Z" fill="#e8187a"/>
    <path d="M85.926,44.567c-.9-2.16-1.32-2.7-3.06-2.88l-1.02-.24-.12-1.02h16.08l-.12,1.02-1.38.24c-1.44.18-1.86.9-1.2,2.58l5.279,14.579,4.32-11.939-.84-2.4c-.84-2.16-1.98-2.64-3-2.82l-1.14-.24-.12-1.02h16.319l-.12,1.02-1.32.24c-2.04.3-1.92.9-1.38,2.58l4.86,14.099,3.24-9.839c1.68-4.74,1.26-6.18-1.92-6.72l-1.2-.36-.18-1.02h11.04l-.18,1.02-1.26.3c-2.34.3-2.76,1.14-4.68,6.66l-6.6,18.958h-3.6l-7.14-18.539-6.96,18.539h-3.54l-9.06-22.798Z" fill="#e8187a"/>
    <path d="M123.486,54.227c0-8.459,6.48-14.819,14.879-14.819,7.08,0,10.74,4.5,10.74,9,0,.6-.06,1.26-.18,1.8,0,0-13.859-.18-16.199-.3-.06.54-.06,1.5-.06,2.04.06,6.3,3.3,10.68,8.58,10.68,3.3,0,5.76-1.62,7.38-4.62l.72.36c-2.1,6-6.3,9.359-12.899,9.359-7.32,0-12.959-5.64-12.959-13.499ZM141.065,48.767c.06-3.96-.78-7.86-3.54-7.86-2.34,0-4.38,2.76-4.8,7.919l8.339-.06Z" fill="#e8187a"/>
    <path d="M147.065,65.746l.78-.061c1.74-.12,2.4-.3,2.4-1.02v-15.719c0-3.72-.48-4.2-2.52-4.8l-1.2-.3.06-.78,12.479-3.479-.12,8.879h.18c1.92-5.64,4.38-8.939,8.1-8.939,2.76,0,4.8,1.68,4.8,4.8,0,2.04-1.74,4.2-4.02,4.2-2.64,0-3.959-1.8-4.62-3.72-1.68.42-3.12,2.46-4.44,6.78v13.079c0,.54.48.84,3,1.02l1.08.061.18,1.02h-16.319l.18-1.02Z" fill="#e8187a"/>
    <path d="M172.384,57.526c0-7.68,5.88-17.399,12.359-17.399,4.68,0,7.26,4.68,7.26,10.619,0,7.86-5.88,16.799-12.66,16.799-5.22,0-6.959-5.22-6.959-10.02ZM188.043,56.146c.72-2.34,1.2-5.58,1.2-7.8,0-4.379-1.32-7.2-4.14-7.2-3.78,0-7.14,6-8.879,11.519-.72,2.4-1.14,5.641-1.14,7.14,0,3.84,1.2,6.78,3.9,6.78,3.84,0,7.32-4.8,9.06-10.439Z" fill="#e8187a"/>
    <path d="M178.923,77.566c0-1.728,1.224-2.808,2.592-2.808,1.944,0,3.312,2.16,1.512,4.608.72.359,2.664-.576,3.168-.576,3.24-.648,4.824-3.601,7.849-19.226l3.888-21.53-5.616-.072.504-1.944,5.76-.36c1.584-7.057,3.601-11.521,5.977-13.969,2.16-2.304,4.681-3.168,7.345-3.168,2.952,0,5.328,1.728,5.328,3.816,0,1.8-1.152,2.88-2.521,2.88-1.943,0-3.384-2.088-1.512-4.608,0,0-2.809-.144-3.816-.144-3.672.864-5.328,4.536-7.417,15.337l7.633.072-.359,2.16h-7.705l-4.392,21.385c-2.304,10.657-4.608,16.346-7.489,19.226-1.8,1.801-3.744,2.521-5.833,2.521-3.312,0-4.896-1.656-4.896-3.601Z" fill="#e8187a"/>
    <path d="M209.943,65.746l2.16-.24c1.92-.3,2.58-.601,2.58-1.08V31.488c0-.48-.36-.66-3.12-.96l-1.56-.24-.181-1.02h17.76c11.34,0,17.219,3.06,17.219,9.6,0,6.96-7.14,10.86-17.699,10.86-.899,0-1.859-.06-2.579-.18v14.999c0,.479.3.72,2.939.96l2.22.24.181,1.02h-20.1l.18-1.02ZM234.243,39.707c0-5.879-2.641-9.06-7.68-9.179l-2.04.12v17.52c.659.06,1.439.3,2.279.3,4.32,0,7.44-3.6,7.44-8.76Z" fill="#e8187a"/>
    <path d="M263.702,62.326h-.18c-3.18,2.76-6.72,5.279-10.439,5.279-2.04,0-3.24-.78-4.74-2.22-1.439-1.5-2.1-4.08-1.979-7.199l.12-15.839c0-.3-.24-.54-3-.84l-.9-.06-.18-1.02h12.84l-.181,16.079c-.12,4.44,1.8,5.64,4.74,5.64,1.62,0,2.88-.66,3.84-1.199v-18.479c0-.6-.42-.78-2.88-.96l-.9-.06-.239-1.02h12.659v19.079c0,2.88.359,3.6,2.1,4.08l1.68.42-.119.72-12.36,3,.12-5.399Z" fill="#e8187a"/>
    <path d="M275.042,34.728c0-3-.359-3.54-2.16-4.08l-1.56-.6.06-.78,12.3-3.3v18.959l.3.12c2.101-2.82,5.4-5.28,9.12-5.28,6,0,10.919,5.58,10.919,12.959,0,9.539-7.68,14.879-15.239,14.879-2.939,0-5.699-.78-8.459-1.8h-.061l-4.68,2.28h-.54v-33.358ZM294.602,55.126c0-6.179-2.58-10.499-6.6-10.499-1.86,0-3.181.84-4.32,1.68v15.119c1.92,2.94,4.14,4.92,5.94,4.92,3.06,0,4.979-4.8,4.979-11.22Z" fill="#e8187a"/>
    <path d="M302.282,65.746l.841-.061c1.739-.12,2.1-.3,2.1-1.02v-29.878c0-2.94-.42-3.48-2.1-4.02l-1.561-.66.12-.72,12.3-3.36v38.698c0,.54.479.78,2.46.96l.72.061.18,1.02h-15.299l.239-1.02Z" fill="#e8187a"/>
    <path d="M315.724,65.746l.84-.061c1.74-.12,2.4-.3,2.4-1.02v-15.719c0-3.72-.48-4.2-2.521-4.8l-1.2-.3.061-.78,12.359-3.479v25.138c0,.54.36.66,2.88.96l.54.061.18,1.02h-15.719l.18-1.02ZM317.823,31.368c0-2.58,2.04-5.04,5.16-5.04,3.24,0,5.22,2.46,5.22,5.04s-1.979,5.1-5.22,5.1c-3.12,0-5.16-2.52-5.16-5.1Z" fill="#e8187a"/>
    <path d="M329.583,54.467c0-8.58,6.239-14.939,15.119-14.939,5.939,0,10.079,2.58,10.079,6.3,0,2.52-1.8,4.2-4.14,4.2-2.7,0-4.439-2.34-4.2-4.92,0-1.2,1.261-2.46,1.261-2.76-.061-.72-1.261-1.32-2.641-1.32-3.6,0-6.06,3.66-6.06,10.499,0,7.02,2.88,11.1,8.22,11.1,3.24,0,5.7-1.62,7.32-4.62l.659.36c-2.159,6-6.539,9.359-12.659,9.359-7.38,0-12.959-5.46-12.959-13.259Z" fill="#e8187a"/>
  </g>
</svg>